<?xml version="1.0" encoding="UTF-8"?>
<svg id="Layer_2" xmlns="http://www.w3.org/2000/svg" viewBox="0 0 824.99 169.54">
  <g id="_x31_080_x__x_1080_px_Logo_Set_2">
    <g id="Text">
      <path d="M745.69,156.32c-7.11-8.19-10.66-20.73-10.66-37.6V51.38c0-16.87,3.55-29.41,10.66-37.6,7.1-8.2,18.01-12.3,32.72-12.3h45.45v13.85h-45.45c-10.18,0-17.7,2.95-22.54,8.84-4.84,5.89-7.26,14.96-7.26,27.22v26.74h65.63v13.85h-65.63v26.74c0,12.26,2.42,21.33,7.26,27.22,4.84,5.89,12.36,8.84,22.54,8.84h46.58v13.85h-46.58c-14.71,0-25.62-4.1-32.72-12.3Z"/>
      <path d="M0,165.48V4.06h33.47c24.14,0,41.66,1.94,52.56,5.82,15.65,5.49,27.89,15,36.7,28.53,8.82,13.54,13.22,29.67,13.22,48.39,0,16.17-3.5,30.4-10.48,42.69-6.99,12.29-16.06,21.36-27.21,27.21-11.16,5.85-26.8,8.78-46.91,8.78H0ZM15.47,150.23h18.65c22.31,0,37.78-1.39,46.42-4.17,12.14-3.95,21.69-11.06,28.64-21.32,6.95-10.27,10.42-22.82,10.42-37.66,0-15.57-3.77-28.87-11.3-39.91-7.54-11.04-18.03-18.6-31.49-22.7-10.1-3.07-26.74-4.61-49.93-4.61h-11.41v130.37Z"/>
      <path d="M164.93,4.06h16.13v161.42h-16.13V4.06Z"/>
      <path d="M373.76,31.16l-12.51,11.85c-9-8.85-18.86-15.56-29.57-20.13-10.72-4.57-21.16-6.86-31.33-6.86-12.66,0-24.71,3.11-36.16,9.33-11.45,6.22-20.32,14.65-26.61,25.29-6.29,10.65-9.44,21.89-9.44,33.75s3.25,23.69,9.77,34.62c6.51,10.94,15.51,19.53,26.99,25.78,11.48,6.26,24.07,9.38,37.75,9.38,16.6,0,30.65-4.68,42.14-14.05,11.48-9.36,18.29-21.51,20.41-36.43h-51.47v-15.58h69.57c-.15,24.95-7.56,44.76-22.22,59.42-14.67,14.67-34.29,22-58.87,22-29.85,0-53.48-10.17-70.89-30.51-13.39-15.65-20.08-33.76-20.08-54.32,0-15.29,3.84-29.52,11.52-42.69s18.22-23.46,31.6-30.89c13.39-7.42,28.53-11.14,45.43-11.14,13.68,0,26.56,2.47,38.63,7.41,12.07,4.94,23.85,12.86,35.33,23.76Z"/>
      <path d="M414.14,165.48V4.06h3.51l107.43,123.74V4.06h15.91v161.42h-3.62l-106.55-122.23v122.23h-16.68Z"/>
      <path d="M577.97,4.06h16.13v161.42h-16.13V4.06Z"/>
      <path d="M631.09,4.06h80.87v15.8h-64.74v50.59h64.74v15.8h-64.74v79.23h-16.13V4.06Z"/>
    </g>
  </g>
</svg>